<?xml version="1.0" standalone="no"?>
<!DOCTYPE svg PUBLIC "-//W3C//DTD SVG 20010904//EN"
 "http://www.w3.org/TR/2001/REC-SVG-20010904/DTD/svg10.dtd">
<svg version="1.0" xmlns="http://www.w3.org/2000/svg"
 width="350.000000pt" height="350.000000pt" viewBox="0 0 350.000000 350.000000"
 preserveAspectRatio="xMidYMid meet">
<metadata>
Created by potrace 1.11, written by Peter Selinger 2001-2013
</metadata>
<g transform="translate(0.000000,350.000000) scale(0.100000,-0.100000)"
fill="#000000" stroke="none">
<path d="M1389 2006 c-1 -1 -2 -117 -3 -258 l-2 -258 203 0 203 0 -4 33 c-2
17 -4 35 -5 38 0 4 -65 7 -143 7 -79 0 -151 0 -160 1 -17 1 -18 18 -18 219 l0
219 -35 0 c-19 0 -36 -1 -36 -1z"/>
<path d="M70 1991 c0 -8 59 -145 113 -261 19 -41 49 -109 67 -150 18 -41 35
-79 39 -83 4 -4 39 62 77 148 38 85 72 155 76 155 4 0 10 -10 14 -22 6 -21 63
-149 113 -253 19 -40 19 -40 29 -15 6 14 56 126 111 248 56 123 101 227 101
231 0 4 -18 7 -39 7 -44 1 -36 13 -123 -184 -28 -64 -54 -120 -58 -125 -3 -4
-38 62 -76 148 -38 85 -71 155 -74 155 -3 0 -36 -70 -74 -155 -38 -86 -73
-152 -77 -148 -3 4 -24 49 -46 98 -102 229 -90 211 -134 212 -21 1 -39 -2 -39
-6z"/>
<path d="M863 1963 l2 -38 225 0 225 0 3 38 3 37 -229 0 -230 0 1 -37z"/>
<path d="M1862 1963 l3 -38 225 0 225 0 3 38 3 37 -231 0 -231 0 3 -37z"/>
<path d="M2383 1948 l2 -53 198 -198 c110 -109 200 -197 202 -195 4 4 7 200 6
381 l-1 118 -37 -3 -38 -3 1 -157 0 -158 -24 23 c-13 12 -87 84 -163 160 -77
75 -141 137 -143 137 -3 0 -4 -24 -3 -52z"/>
<path d="M3027 1984 c-97 -34 -171 -138 -170 -238 1 -69 36 -149 86 -191 61
-53 111 -65 264 -65 l133 0 0 155 0 155 -130 0 -130 0 19 -39 20 -39 68 1 68
1 3 -77 c3 -88 17 -79 -119 -79 -81 0 -118 13 -156 54 -28 30 -53 89 -53 125
1 65 63 148 126 167 11 4 80 7 152 8 l132 1 0 39 0 39 -137 -2 c-86 -1 -152
-6 -176 -15z"/>
<path d="M862 1690 l-2 -200 231 0 230 0 -3 38 -3 37 -188 0 -187 0 0 80 0 80
163 0 162 0 3 38 3 37 -165 0 -166 0 0 45 0 45 -39 0 -38 0 -1 -200z"/>
<path d="M1861 1690 l-1 -200 231 0 230 0 -3 38 -3 37 -188 0 -187 0 0 80 0
80 163 0 162 0 3 38 3 37 -165 0 -166 0 0 45 0 45 -39 0 -40 0 0 -200z"/>
<path d="M2384 1665 l0 -175 38 0 38 0 0 143 0 143 -33 32 c-18 18 -35 32 -38
32 -2 0 -5 -79 -5 -175z"/>
</g>
</svg>
